<?xml version="1.0" encoding="UTF-8"?> <svg xmlns="http://www.w3.org/2000/svg" xmlns:xlink="http://www.w3.org/1999/xlink" width="941.56" height="480.22" viewBox="0 0 941.56 480.22"><defs><linearGradient id="a" x1="273.64" y1="190.28" x2="337.01" y2="463.84" gradientUnits="userSpaceOnUse"><stop offset="0" stop-color="#b0cff9"></stop><stop offset="0.2" stop-color="#0c65d5"></stop><stop offset="0.74" stop-color="#0c65d5"></stop><stop offset="1" stop-color="#b0cff9"></stop></linearGradient><linearGradient id="b" x1="416.57" y1="157.17" x2="479.94" y2="430.74" xlink:href="#a"></linearGradient><linearGradient id="c" x1="139.37" y1="222.97" x2="139.37" y2="385.08" gradientUnits="userSpaceOnUse"><stop offset="0" stop-color="#041833"></stop><stop offset="1" stop-color="#041833" stop-opacity="0"></stop></linearGradient><linearGradient id="d" x1="384.75" y1="164.54" x2="448.12" y2="438.11" xlink:href="#a"></linearGradient><linearGradient id="e" x1="253.89" y1="380.09" x2="204.23" y2="234.49" gradientUnits="userSpaceOnUse"><stop offset="0" stop-color="#afcff9"></stop><stop offset="1" stop-color="#3f86df"></stop></linearGradient><linearGradient id="f" x1="770.57" y1="75.18" x2="833.93" y2="348.74" xlink:href="#a"></linearGradient><linearGradient id="g" x1="45.88" y1="66.83" x2="978.07" y2="445.79" gradientUnits="userSpaceOnUse"><stop offset="0" stop-color="#0c65d5"></stop><stop offset="0.56" stop-color="#063166"></stop><stop offset="1" stop-color="#0c65d5"></stop></linearGradient><linearGradient id="h" x1="61.6" y1="28.16" x2="993.79" y2="407.13" xlink:href="#g"></linearGradient><linearGradient id="i" x1="408.69" y1="114.76" x2="408.69" y2="375.76" gradientUnits="userSpaceOnUse"><stop offset="0" stop-color="#fff"></stop><stop offset="0.08" stop-color="#fff"></stop><stop offset="0.1" stop-color="#afcff9"></stop><stop offset="0.21" stop-color="#fff"></stop><stop offset="0.39" stop-color="#fff"></stop><stop offset="0.4" stop-color="#afcff9"></stop><stop offset="0.6" stop-color="#fff"></stop><stop offset="1" stop-color="#fff"></stop></linearGradient><linearGradient id="r" x1="417.53" y1="245.17" x2="417.53" y2="365.13" xlink:href="#i"></linearGradient><linearGradient id="s" x1="119.05" y1="124.82" x2="119.05" y2="220.14" xlink:href="#i"></linearGradient><linearGradient id="t" x1="229.94" y1="122.65" x2="229.94" y2="222.32" xlink:href="#i"></linearGradient><linearGradient id="u" x1="338.54" y1="122.65" x2="338.54" y2="222.32" xlink:href="#i"></linearGradient><linearGradient id="v" x1="439.56" y1="124.82" x2="439.56" y2="220.14" xlink:href="#i"></linearGradient><linearGradient id="w" x1="536.35" y1="124.82" x2="536.35" y2="220.14" xlink:href="#i"></linearGradient><linearGradient id="x" x1="638.32" y1="124.82" x2="638.32" y2="220.14" xlink:href="#i"></linearGradient><linearGradient id="y" x1="289.26" y1="242.43" x2="289.26" y2="367.87" xlink:href="#i"></linearGradient><linearGradient id="z" x1="690.51" y1="245.17" x2="690.51" y2="365.13" xlink:href="#i"></linearGradient><linearGradient id="aa" x1="551.7" y1="262.67" x2="572.42" y2="380.26" gradientUnits="userSpaceOnUse"><stop offset="0" stop-color="#0c65d5"></stop><stop offset="0.27" stop-color="#0a53af"></stop><stop offset="0.59" stop-color="#084187"></stop><stop offset="0.84" stop-color="#06356f"></stop><stop offset="1" stop-color="#063166"></stop></linearGradient></defs><title>HockeyShop.dk</title><path d="M515.77,313.74s-160.7,99.19-310.34,99.19c-44,0-87.55-10.81-97.79-47-9.85-34.76,24.72-79.57,50.8-105.65,5.13-5.53,10.61-11.1,16.36-16.7l-22.38-15.79q-7.24,6.45-13.94,12.88c-39,37.57-77.57,87-61.39,138.86,16.59,53.25,71.59,69.09,127.72,71,110.69,3.76,284.08-49.72,349.36-88.05Z" style="fill:url(#a)"></path><path d="M276.42,160.89C368.08,95.82,478.2,35.46,555.59,0,466.83,34,341.77,94.15,241.87,160.28Z" style="fill:url(#b)"></path><path d="M109.93,365.39c-9.84-34.76,24.06-78.74,48.51-105.09q7.69-8.3,16.36-16.71l-22.38-15.78q-7.26,6.45-13.94,12.88c-39,37.57-77.57,87-61.39,138.86,16.59,53.25,71.59,69.09,127.72,71l.62-41.73C167.64,409.16,120.18,401.57,109.93,365.39Z" style="fill:url(#c)"></path><path d="M703.47,221.73h-43.2l5.13-26.06,74.84-94.29h-92L640,111.63l-4-10.25H384l-.95,4.76a80.48,80.48,0,0,0-33.75-6.94c-24.14,0-44.22,8.4-58.68,21.72C276.8,106.12,257,99.2,235.79,99.2a91.74,91.74,0,0,0-32.32,5.62l.69-3.44H0l52.15,51.16L33.94,243.59H174.79c2.81-2.74,5.72-5.49,8.66-8.24,15.84,9.38,34.68,11.89,52.73,9.68-10.32,11.69-15.72,26.11-15.72,42.47a51,51,0,0,0,5.41,23.59L198.09,364.2c9.66,4.27,31.24,27.12,82.83,27.12,13.84,0,26.44-2,37.54-6l-4.72,14.05,170.14-10.8.47-2.36c6.72,4.91,20.62,28.24,58.75,28.24,23.6,0,49.14-9.86,71-25.88h71.76l5.83-29.48c1-.19,49.86,2.87,74.34-34.84,7.46-11.48,11.24-24.71,11.24-39.33C777.3,244.69,746.32,221.73,703.47,221.73Z" style="fill:url(#d)"></path><path d="M392.13,369.29c-60.45,20.89-130.11,39-186.7,39.53-37.79.34-85.25-7.25-95.5-43.43-9.84-34.76,24.06-78.74,48.51-105.09-24,22.78-52.86,57.13-55.06,89.95-1.9,22.79,11.16,45.42,43,57.34,80.48,30.12,242-24.95,252-28.39Z" style="fill:url(#e)"></path><path d="M811.1,292.44l-.4,2a60,60,0,0,0-15.63-2H753.62l-6.38,31.88a32.9,32.9,0,0,0-31.07,33.14c0,16.16,11.48,31.12,32.17,31.12H913.6l-27.41-45.82,55.37-50.32Z" style="fill:url(#f)"></path><path d="M605.35,379.2h72.83L684,349.72h9.18c42.49,0,74.73-24.79,74.73-64.79,0-35.52-27.58-53.83-64.45-53.83h-54.6l7.77-39.48,64.19-80.86H652.7l-15.58,19.33-7.59-19.33H458.7l-8.23,7.67,1.55-7.67H391.71l-2,10.17a53.73,53.73,0,0,0-10-6.06,71.2,71.2,0,0,0-30.34-6.29c-13.89,0-26.58,3-37.72,8.93A68.41,68.41,0,0,0,290,135.38a53.88,53.88,0,0,0-22.45-20c-9.22-4.52-19.9-6.81-31.73-6.81a79.58,79.58,0,0,0-37.54,8.84,71.51,71.51,0,0,0-7.83,4.8l2.3-11.46H23L62.34,149.4l-17,84.81H168L172.26,213a54.41,54.41,0,0,0,20.09,16.53c9.22,4.52,19.89,6.82,31.73,6.82a79.52,79.52,0,0,0,37.54-8.85,67.62,67.62,0,0,0,21.78-18,54,54,0,0,0,20.49,18.83c-13.94.08-26.39,2.28-37,6.6-11.6,4.71-20.73,11.65-27.14,20.62a53.73,53.73,0,0,0-9.9,31.91c0,9.05,2.27,16.87,6.75,23.32l-26.14,50,11.17,6.88c7.16,4.41,16.13,7.95,26.66,10.52a138.29,138.29,0,0,0,32.64,3.74c14.1,0,26.72-2.22,37.51-6.61a69.79,69.79,0,0,0,13-6.89l-2.16,10.76h69.12L407.28,335h8.66L407,379.2h69.16l3.17-15.87Zm-378.55-197c-3.64,0-4.58-.83-4.58-4.45,0-7.32,3.09-15.07,10.85-15.07,3.66,0,4.58.84,4.58,4.45C237.65,174.5,234.55,182.24,226.8,182.24Zm114.35,0c-4.55,0-5.54-1.6-5.54-4.59,0-8,3.49-14.93,11.67-14.93,6.25,0,6.52,4.38,9,7.86C352.79,173.83,349.11,182.24,341.15,182.24Zm78.32,91.36L428,231.1h-.1l2.63-13.28,6.65,10.68-9.1,45.1ZM582,181.83l3.74-18.7h1.95l9.21,23.34-5.5,27.73h-8.51l6.55-32.37ZM486.3,157.32l-5.79,28.94-9.17-15.34Z" style="fill:url(#g)"></path><path d="M818.79,301.82l-1.11,5.55a37.74,37.74,0,0,0-3.47-1.79,46.5,46.5,0,0,0-19.14-3.76H761.31s-23.9,34.05-28.44,38.32a23.12,23.12,0,0,0-7.32,17.32,21.91,21.91,0,0,0,6.69,16.1c4.27,4.15,9.83,5.64,16.1,5.64H897.06L874.2,341l43.09-39.17Z" style="fill:url(#h)"></path><polygon points="439.64 287.67 402.28 287.67 410.85 245.17 370.41 245.17 346.42 365.13 386.86 365.13 395.77 320.92 433.13 320.92 424.21 365.13 464.66 365.13 488.65 245.17 448.21 245.17 439.64 287.67" style="fill:#fff"></polygon><polygon points="143.42 124.82 136.61 158.59 106.93 158.59 113.74 124.82 57.38 124.82 77.63 144.69 62.54 220.14 94.67 220.14 101.75 185.01 131.44 185.01 124.36 220.14 156.49 220.14 175.56 124.82 143.42 124.82" style="fill:#fff"></polygon><path d="M235.79,122.65c-21.71,0-41.57,9.11-52.35,27.44q-7.71,13-7.7,29.61c0,27.23,21.14,42.62,48.33,42.62,34.26,0,60.06-22.62,60.06-57.06C284.13,138.34,263.34,122.65,235.79,122.65Zm-9,73.66c-11.94,0-18.65-7.56-18.65-18.52,0-15.7,9.21-29.13,24.92-29.13,12,0,18.66,7.53,18.66,18.52C251.73,182.81,242.58,196.31,226.8,196.31Z" style="fill:#fff"></path><path d="M289.14,179.7c0,27.08,21.51,42.62,48.88,42.62,21,0,33.7-7.12,43.3-18.93l-18.93-18.11c-5.59,6.76-12.53,11-21.24,11-13.28,0-22.57-9.24-18.79-26.64,2.65-12.18,11.78-21,24.92-21q12.66,0,19.06,11.17l23.15-18.11c-7.79-13.73-24.32-19.06-40.17-19.06C313.48,122.65,289.14,146.79,289.14,179.7Z" style="fill:#fff"></path><polygon points="415.77 220.14 420.26 197.4 429.25 189.09 448.58 220.14 484.39 220.14 453.35 168.26 501.14 124.82 464.24 124.82 428.02 158.59 434.83 124.82 403.24 124.82 384.18 220.14 415.77 220.14" style="fill:#fff"></polygon><polygon points="488.08 220.14 567.33 220.14 572.23 195.9 524.44 195.9 526.89 183.37 567.33 183.37 571.96 160.23 531.65 160.23 533.83 149.06 579.72 149.06 584.62 124.82 507.15 124.82 488.08 220.14" style="fill:#fff"></polygon><polygon points="636.69 220.14 643.5 185.55 691.7 124.82 659.43 124.82 632.88 157.78 619.94 124.82 587.67 124.82 611.5 185.15 604.55 220.14 636.69 220.14" style="fill:#fff"></polygon><path d="M307.94,292c-13.75-3.62-23.59-4.82-23.59-10.65,0-6.14,10.9-8.05,17.65-8.05,11.43,0,23.2,2.76,32.9,8.91l14.57-29.48c-12.88-7.62-29.94-10.28-44.9-10.28-31.77,0-60.67,13.42-60.67,45.07,0,9.4,3.07,15.83,10.63,21.86C269.73,321.5,301,321,301,330c0,6-10,7-15.94,7a79.94,79.94,0,0,1-40.44-11.14L229,355.7c14.17,8.73,35.06,12.17,51.92,12.17,31.11,0,60.66-13.39,60.66-44.73C341.58,303.6,326.4,296.84,307.94,292Z" style="fill:#fff"></path><path d="M703.47,245.17h-53.3l-24,120h40.45l5.84-29.48h20.72c34,0,60.67-18,60.67-50.73C753.85,256.88,731.58,245.17,703.47,245.17Zm-8.22,59.29H678.62l5.66-28.09h13.53c10,0,15.93,4.08,15,14C712.07,300,704.92,304.46,695.25,304.46Z" style="fill:#fff"></path><path d="M739.62,357.46c0-6,4.52-9.78,10-9.78,5.11,0,8.65,3.33,8.65,8.37,0,6-4.54,9.78-9.92,9.78S739.62,362.26,739.62,357.46Z" style="fill:#fff"></path><path d="M772.84,315.89h22.23c14.4,0,25.11,7.05,25.11,20.89,0,17.3-12.81,28.35-30.81,28.35H763Zm17.09,36.3c8.82,0,13.51-6.24,13.51-14.43,0-6.15-4.12-8.93-10.27-8.93h-6.33l-4.64,23.36Z" style="fill:#fff"></path><polygon points="856.21 338.33 872.25 365.13 853.75 365.13 843.76 349.09 839.12 353.38 836.79 365.13 820.47 365.13 830.32 315.89 846.64 315.89 843.13 333.33 861.84 315.89 880.9 315.89 856.21 338.33" style="fill:#fff"></polygon><path d="M443.35,292.21H396.73c.67-3.31,8-39.64,8.57-42.5H374.13L352,360.59h31.19c1.38-6.85,8.16-40.46,8.91-44.21h46.62c-.64,3.19-8.35,41.45-8.91,44.21h31.18l22.17-110.88H451.92C450.43,257.13,444.1,288.49,443.35,292.21Z" style="fill:url(#i)"></path><polygon points="147.13 129.36 140.33 163.13 101.38 163.13 108.19 129.36 68.49 129.36 82.56 143.17 68.08 215.6 90.96 215.6 98.04 180.47 136.98 180.47 129.9 215.6 152.77 215.6 170.02 129.36 147.13 129.36" style="fill:url(#i)"></polygon><path d="M279.59,165.26c0-24.47-18.85-38.08-43.8-38.08-32,0-55.51,20.84-55.51,52.52,0,24.23,18.55,38.08,43.8,38.08C256.18,217.78,279.59,196.84,279.59,165.26ZM226.8,200.85c-14.66,0-23.19-9.76-23.19-23.06,0-18.25,11.21-33.68,29.46-33.68,14.4,0,23.19,9.52,23.19,23.06C256.26,185.38,245.08,200.85,226.8,200.85Z" style="fill:url(#i)"></path><path d="M338,217.78c17.86,0,28.65-5.29,37-14.11l-12.45-11.92c-6.24,6-13.43,9.1-21.44,9.1-14.34,0-24.14-9.36-24.14-23.2,0-19.21,12.22-33.54,30.27-33.54a25,25,0,0,1,20.05,9.17l16.07-12.57c-7.59-9.84-21.51-13.53-34.08-13.53-32,0-55.64,20.86-55.64,52.52C293.68,203.85,312.72,217.78,338,217.78Z" style="fill:url(#i)"></path><polygon points="412.04 215.6 416.1 195.07 430.2 182.03 451.1 215.6 476.39 215.6 447.55 167.4 489.4 129.36 466.03 129.36 420.78 171.55 429.29 129.36 406.96 129.36 389.71 215.6 412.04 215.6" style="fill:url(#i)"></polygon><polygon points="563.62 215.6 566.68 200.44 518.93 200.44 523.15 178.84 563.61 178.84 566.42 164.77 526.15 164.77 530.1 144.52 576.01 144.52 579.07 129.36 510.87 129.36 493.62 215.6 563.62 215.6" style="fill:url(#i)"></polygon><polygon points="610.08 215.6 632.96 215.6 639.26 183.59 682.3 129.36 661.6 129.36 631.51 166.71 616.85 129.36 594.34 129.36 616.21 184.72 610.08 215.6" style="fill:url(#i)"></polygon><path d="M337,323.14c0-18.9-17.47-23.84-35.74-28.14-9.27-2.15-21.49-4.48-21.49-13.67,0-9.58,12.65-12.59,22.19-12.59a68.46,68.46,0,0,1,31,7.11l10.48-21.22C331.89,249,317.5,247,304.57,247c-29.19,0-56.13,11.81-56.13,40.53,0,19.18,17.76,24.28,36.18,29,8.89,2.18,20.89,4.7,20.89,13.48,0,9.29-11.22,11.56-20.48,11.56a83.9,83.9,0,0,1-38.55-9.49l-11.42,21.82c10.14,5.13,26.39,9.44,45.86,9.44,11.69,0,21.95-1.76,30.51-5.24C327.28,351.66,337,339.79,337,323.14Z" style="fill:url(#i)"></path><path d="M703.47,249.71H653.89L631.72,360.59H662.9l5.82-29.48h24.47c30.95,0,56.12-15.68,56.12-46.18C749.31,259.53,729.06,249.71,703.47,249.71ZM695.24,309H673.08l7.48-37.18h17.25c17.71,0,19.62,11.68,19.62,16.71C717.43,301.64,708.4,309,695.24,309Z" style="fill:url(#i)"></path><path d="M443.35,292.21H396.73c.67-3.31,8-39.64,8.57-42.5H374.13L352,360.59h31.19c1.38-6.85,8.16-40.46,8.91-44.21h46.62c-.64,3.19-8.35,41.45-8.91,44.21h31.18l22.17-110.88H451.92C450.43,257.13,444.1,288.49,443.35,292.21Z" style="fill:url(#r)"></path><polygon points="147.13 129.36 140.33 163.13 101.38 163.13 108.19 129.36 68.49 129.36 82.56 143.17 68.08 215.6 90.96 215.6 98.04 180.47 136.98 180.47 129.9 215.6 152.77 215.6 170.02 129.36 147.13 129.36" style="fill:url(#s)"></polygon><path d="M279.59,165.26c0-24.47-18.85-38.08-43.8-38.08-32,0-55.51,20.84-55.51,52.52,0,24.23,18.55,38.08,43.8,38.08C256.18,217.78,279.59,196.84,279.59,165.26ZM226.8,200.85c-14.66,0-23.19-9.76-23.19-23.06,0-18.25,11.21-33.68,29.46-33.68,14.4,0,23.19,9.52,23.19,23.06C256.26,185.38,245.08,200.85,226.8,200.85Z" style="fill:url(#t)"></path><path d="M338,217.78c17.86,0,28.65-5.29,37-14.11l-12.45-11.92c-6.24,6-13.43,9.1-21.44,9.1-14.34,0-24.14-9.36-24.14-23.2,0-19.21,12.22-33.54,30.27-33.54a25,25,0,0,1,20.05,9.17l16.07-12.57c-7.59-9.84-21.51-13.53-34.08-13.53-32,0-55.64,20.86-55.64,52.52C293.68,203.85,312.72,217.78,338,217.78Z" style="fill:url(#u)"></path><polygon points="412.04 215.6 416.1 195.07 430.2 182.03 451.1 215.6 476.39 215.6 447.55 167.4 489.4 129.36 466.03 129.36 420.78 171.55 429.29 129.36 406.96 129.36 389.71 215.6 412.04 215.6" style="fill:url(#v)"></polygon><polygon points="563.62 215.6 566.68 200.44 518.93 200.44 523.15 178.84 563.61 178.84 566.42 164.77 526.15 164.77 530.1 144.52 576.01 144.52 579.07 129.36 510.87 129.36 493.62 215.6 563.62 215.6" style="fill:url(#w)"></polygon><polygon points="610.08 215.6 632.96 215.6 639.26 183.59 682.3 129.36 661.6 129.36 631.51 166.71 616.85 129.36 594.34 129.36 616.21 184.72 610.08 215.6" style="fill:url(#x)"></polygon><path d="M337,323.14c0-18.9-17.47-23.84-35.74-28.14-9.27-2.15-21.49-4.48-21.49-13.67,0-9.58,12.65-12.59,22.19-12.59a68.46,68.46,0,0,1,31,7.11l10.48-21.22C331.89,249,317.5,247,304.57,247c-29.19,0-56.13,11.81-56.13,40.53,0,19.18,17.76,24.28,36.18,29,8.89,2.18,20.89,4.7,20.89,13.48,0,9.29-11.22,11.56-20.48,11.56a83.9,83.9,0,0,1-38.55-9.49l-11.42,21.82c10.14,5.13,26.39,9.44,45.86,9.44,11.69,0,21.95-1.76,30.51-5.24C327.28,351.66,337,339.79,337,323.14Z" style="fill:url(#y)"></path><path d="M703.47,249.71H653.89L631.72,360.59H662.9l5.82-29.48h24.47c30.95,0,56.12-15.68,56.12-46.18C749.31,259.53,729.06,249.71,703.47,249.71ZM695.24,309H673.08l7.48-37.18h17.25c17.71,0,19.62,11.68,19.62,16.71C717.43,301.64,708.4,309,695.24,309Z" style="fill:url(#z)"></path><path d="M586.52,392.5c-129.11,73.05-365.35,115.39-463.3,67.1,95,29.71,319.44-17.81,422.06-80.23Z" style="fill:#fff"></path><path d="M647.47,263.72c-4.64-7.09-14.09-21-20.61-27.18a49.36,49.36,0,0,0-31-13.91c-12.44-1.11-39.46.45-60.19,14.88-70.78,49.29-74.73,88.72-72.29,104.73,1.67,10.95,10.57,22.77,15.82,28,6.06,6.06,23.36,21.08,23.36,21.08,12,10.17,24.63,11.9,36.44,12.26.8,0,1.61,0,2.42,0,19.72,0,41.51-7.24,61.37-20.39s36.34-31.18,46.73-51a82.1,82.1,0,0,0,9.6-36.64C659.5,283.39,653.36,272.73,647.47,263.72Z" style="fill:url(#aa)"></path><path d="M646.32,310.58A62.47,62.47,0,0,0,649,293.26L624.6,264.2A48.31,48.31,0,0,0,622,247.87c-16-44.22-83.91-26.9-127.21,20.37-50,54.8-27.06,108.08,31.14,98,23.26-4.08,46.64-17.68,64.71-34.83l25.25,27A130.71,130.71,0,0,0,637,331.64L612.07,305a93.57,93.57,0,0,0,10.11-23.22ZM481.2,341.15c-5.76-9.76-3.68-25.68,5.56-42.58,28.67-52.43,100.09-78.76,116.07-51.65,5.76,9.77,3.68,25.68-5.56,42.58C568.6,341.91,497.18,368.26,481.2,341.15Z" style="fill:#fff"></path></svg> 